<svg width="29" height="29" viewBox="0 0 39 39" fill="none" xmlns="http://www.w3.org/2000/svg">
<path d="M38.3333 30.6667V38.3333H30.6667V32.5833H24.9167V26.8333H19.1667L14.835 22.5017C13.7808 22.8275 12.6692 23 11.5 23C8.45001 23 5.52494 21.7884 3.36827 19.6317C1.2116 17.4751 0 14.55 0 11.5C0 8.45001 1.2116 5.52494 3.36827 3.36827C5.52494 1.2116 8.45001 0 11.5 0C14.55 0 17.4751 1.2116 19.6317 3.36827C21.7884 5.52494 23 8.45001 23 11.5C23 12.6692 22.8275 13.7808 22.5017 14.835L38.3333 30.6667ZM9.58333 5.75C8.56667 5.75 7.59165 6.15387 6.87276 6.87276C6.15387 7.59165 5.75 8.56667 5.75 9.58333C5.75 10.6 6.15387 11.575 6.87276 12.2939C7.59165 13.0128 8.56667 13.4167 9.58333 13.4167C10.6 13.4167 11.575 13.0128 12.2939 12.2939C13.0128 11.575 13.4167 10.6 13.4167 9.58333C13.4167 8.56667 13.0128 7.59165 12.2939 6.87276C11.575 6.15387 10.6 5.75 9.58333 5.75Z" fill="#2F973A"/>
</svg>
