<svg width="239" height="211" viewBox="0 0 239 211" fill="none" xmlns="http://www.w3.org/2000/svg">
<path d="M216.5 113C216.5 161.297 174.891 200.5 123.5 200.5C72.1085 200.5 30.5 161.297 30.5 113C30.5 64.7032 72.1085 25.5 123.5 25.5C174.891 25.5 216.5 64.7032 216.5 113Z" fill="white" stroke="#2F973A"/>
<path d="M118.223 74.7849C118.524 79.5998 118.778 81.9724 119.034 83.1599C119.186 83.1574 119.338 83.1549 119.49 83.1549C119.766 83.1549 120.045 83.1599 120.324 83.1649C119.816 81.3574 119.219 71.536 118.88 62.4615C119.824 62.5038 120.755 62.5312 121.656 62.5312C131.139 62.5312 138.242 60.1935 143.492 57.1064C143.599 57.0765 143.696 57.0193 143.773 56.9396C147.087 54.9504 149.649 52.6675 151.588 50.5065C157.414 44.0112 159.002 37.3665 159.074 37.0478C159.077 37.0478 159.077 37.0454 159.077 37.0454V37.0429C159.077 37.0379 159.077 37.0304 159.079 37.0254C159.087 36.9881 159.092 36.9532 159.092 36.9184C159.092 36.9034 159.089 36.891 159.089 36.8761C159.089 36.8487 159.087 36.8188 159.082 36.7914C159.079 36.7765 159.074 36.7615 159.069 36.7466C159.064 36.7192 159.057 36.6943 159.047 36.6694C159.04 36.652 159.032 36.6371 159.022 36.6196C159.015 36.6022 159.007 36.5848 158.997 36.5674C158.995 36.5624 158.99 36.5599 158.987 36.5549C158.985 36.5499 158.982 36.5449 158.98 36.54C158.972 36.53 158.962 36.5201 158.952 36.5101C158.937 36.4902 158.923 36.4703 158.905 36.4528C158.893 36.4404 158.878 36.4304 158.865 36.418C158.845 36.403 158.825 36.3856 158.806 36.3732C158.791 36.3632 158.773 36.3557 158.758 36.3458C158.738 36.3358 158.716 36.3259 158.694 36.3159C158.676 36.3084 158.659 36.3035 158.641 36.2985C158.619 36.291 158.596 36.286 158.574 36.2811C158.564 36.2786 158.554 36.2761 158.544 36.2736C145.852 34.5881 135.707 36.6844 128.39 42.5025C120.361 48.8833 118.238 57.7288 117.732 60.7188C115.176 57.5819 105.135 46.1572 93.82 45.0643C88.9304 44.5913 84.4442 46.1398 80.4882 49.6675C80.4808 49.675 80.4758 49.685 80.4683 49.6899C80.4459 49.7124 80.426 49.7348 80.4086 49.7597C80.3961 49.7721 80.3886 49.787 80.3787 49.7995C80.3638 49.8244 80.3488 49.8493 80.3364 49.8767C80.3289 49.8916 80.3214 49.909 80.3165 49.9265C80.314 49.9339 80.309 49.9414 80.3065 49.9489C80.299 49.9688 80.2965 49.9912 80.294 50.0111C80.2891 50.026 80.2866 50.0435 80.2841 50.0584C80.2766 50.1007 80.2766 50.1431 80.2791 50.1854C80.2791 50.1879 80.2791 50.1904 80.2791 50.1928C80.2791 50.1953 80.2791 50.1953 80.2791 50.1953C80.2791 50.1978 80.2791 50.1978 80.2791 50.2003C80.3065 50.5165 80.9264 56.6483 87.0109 60.9279C90.0582 63.069 93.8722 64.3461 98.4282 64.7569C98.5402 64.844 98.6746 64.8889 98.8116 64.8889C98.9161 64.8889 99.0207 64.8615 99.1153 64.8092C99.9842 64.8689 100.873 64.9038 101.792 64.9038C106.405 64.9038 111.668 64.1345 117.558 62.6009C117.406 66.4573 116.657 80.4363 116.505 83.2545C116.928 83.2271 117.351 83.2072 117.777 83.1898C117.849 81.8155 118.031 78.4546 118.223 74.7849ZM120.309 61.2491L130.265 55.0899L141.369 56.8351C136.193 59.5387 129.324 61.4582 120.309 61.2491ZM150.605 49.7049C148.753 51.7638 146.31 53.9347 143.154 55.8342L131.916 54.0691L157.367 38.3225C156.56 40.6577 154.603 45.266 150.605 49.7049ZM156.587 37.3142L140.044 47.5514L140.612 38.0611C145.305 36.9358 150.642 36.6844 156.587 37.3142ZM129.192 43.4809C132.1 41.1731 135.486 39.4777 139.325 38.3972L138.727 48.3655L119.062 60.5321C119.679 57.3803 121.91 49.2617 129.192 43.4809ZM115.985 60.6192L96.5311 54.4401L94.5469 46.4311C104.03 47.8178 112.731 56.8599 115.985 60.6192ZM93.2075 46.2892L95.117 53.9895L82.1961 49.8841C85.5222 47.2278 89.2217 46.0228 93.2075 46.2892ZM81.7156 51.0592L103.893 58.1072L98.6547 63.5096C94.2905 63.1312 90.6507 61.9312 87.7653 59.9097C83.5106 56.9321 82.1363 52.8916 81.7156 51.0592ZM100.318 63.6117L105.24 58.5329L115.534 61.8043C109.798 63.181 104.719 63.781 100.318 63.6117Z" fill="#1F5014"/>
<mask id="mask0_83_5" style="mask-type:luminance" maskUnits="userSpaceOnUse" x="99" y="24" width="46" height="59">
<path d="M99.424 24.7642H144.037V82.2587H99.424V24.7642Z" fill="white"/>
</mask>
<g mask="url(#mask0_83_5)">
<path d="M108.638 74.6007C106.3 74.1974 106.161 74.1725 105.899 69.3751C105.879 69.039 105.603 68.7776 105.267 68.7776C104.931 68.7776 104.652 69.039 104.635 69.3751C104.373 74.1725 104.234 74.1974 101.896 74.6007C101.592 74.653 101.371 74.9169 101.371 75.2231C101.371 75.5318 101.592 75.7957 101.896 75.848C104.234 76.2513 104.373 76.2762 104.635 81.0736C104.652 81.4097 104.931 81.6711 105.267 81.6711C105.603 81.6711 105.879 81.4097 105.899 81.0736C106.161 76.2762 106.3 76.2513 108.638 75.848C108.942 75.7957 109.163 75.5318 109.163 75.2231C109.163 74.9169 108.942 74.653 108.638 74.6007ZM105.267 76.448C105.031 75.8853 104.694 75.5044 104.202 75.2231C104.694 74.9443 105.031 74.5634 105.267 74.0007C105.504 74.5634 105.84 74.9443 106.333 75.2231C105.837 75.5044 105.504 75.8853 105.267 76.448ZM111.187 34.2421C107.147 33.5425 106.831 33.301 106.397 25.3642C106.38 25.0281 106.104 24.7642 105.767 24.7642C105.431 24.7642 105.153 25.0281 105.135 25.3642C104.702 33.301 104.386 33.5425 100.345 34.2421C100.041 34.2943 99.8198 34.5558 99.8198 34.8645C99.8198 35.1732 100.041 35.4346 100.345 35.4869C104.386 36.1864 104.702 36.4279 105.135 44.3647C105.153 44.7008 105.431 44.9622 105.767 44.9622C106.104 44.9622 106.38 44.7008 106.397 44.3647C106.831 36.4279 107.147 36.1864 111.187 35.4869C111.491 35.4346 111.713 35.1732 111.713 34.8645C111.713 34.5558 111.491 34.2943 111.187 34.2421ZM105.767 38.0935C105.339 36.296 104.597 35.4196 103.119 34.8645C104.597 34.3093 105.339 33.433 105.767 31.633C106.196 33.433 106.935 34.3093 108.414 34.8645C106.935 35.4196 106.196 36.296 105.767 38.0935ZM143.298 67.234C140.741 66.7934 140.589 66.766 140.305 61.5578C140.288 61.2217 140.009 60.9603 139.673 60.9603C139.337 60.9603 139.061 61.2217 139.041 61.5578C138.759 66.766 138.605 66.7934 136.048 67.234C135.745 67.2863 135.523 67.5502 135.523 67.8589C135.523 68.1676 135.745 68.429 136.048 68.4813C138.605 68.9245 138.759 68.9493 139.041 74.1576C139.061 74.4936 139.337 74.7575 139.673 74.7575C140.009 74.7575 140.288 74.4936 140.305 74.1576C140.589 68.9493 140.741 68.9245 143.298 68.4813C143.602 68.429 143.823 68.1676 143.823 67.8589C143.823 67.5502 143.602 67.2863 143.298 67.234ZM139.673 69.3178C139.407 68.6257 139.018 68.1776 138.416 67.8589C139.018 67.5402 139.407 67.0921 139.673 66.4C139.939 67.0921 140.33 67.5402 140.93 67.8589C140.33 68.1776 139.939 68.6257 139.673 69.3178Z" fill="#B0C1B5"/>
</g>
<mask id="mask1_83_5" style="mask-type:luminance" maskUnits="userSpaceOnUse" x="75" y="82" width="89" height="39">
<path d="M75.524 82.896H163.476V120.364H75.524V82.896Z" fill="white"/>
</mask>
<g mask="url(#mask1_83_5)">
<path d="M116.958 114.723C117.195 114.466 117.593 114.451 117.849 114.688C117.999 114.822 119.338 115.935 121.193 114.636C121.479 114.434 121.875 114.504 122.074 114.79C122.276 115.076 122.206 115.47 121.92 115.671C121.034 116.294 120.18 116.515 119.43 116.515C118.32 116.515 117.434 116.03 116.99 115.617C116.734 115.38 116.719 114.979 116.958 114.723ZM126.59 111.793C128.736 111.793 130.609 109.811 131.248 106.866C131.323 106.522 131.106 106.186 130.765 106.111C130.424 106.037 130.086 106.253 130.014 106.597C129.508 108.91 128.102 110.525 126.59 110.525C125.079 110.525 123.673 108.91 123.17 106.597C123.095 106.253 122.756 106.037 122.418 106.111C122.074 106.186 121.858 106.522 121.932 106.866C122.575 109.811 124.447 111.793 126.59 111.793ZM112.425 111.793C114.568 111.793 116.44 109.811 117.08 106.866C117.155 106.522 116.938 106.186 116.597 106.111C116.256 106.039 115.92 106.253 115.845 106.597C115.342 108.91 113.933 110.525 112.425 110.525C110.913 110.525 109.504 108.91 109.001 106.597C108.927 106.253 108.591 106.039 108.25 106.111C107.908 106.186 107.692 106.522 107.767 106.866C108.406 109.811 110.279 111.793 112.425 111.793ZM163.434 119.727C163.434 120.075 163.15 120.359 162.801 120.359H76.1937C75.8427 120.359 75.5588 120.075 75.5588 119.727C75.5588 119.695 75.5638 119.667 75.5688 119.637C75.5564 119.56 75.5564 119.478 75.5713 119.401C77.4534 109.609 82.5994 100.672 90.1951 94.0842C97.5643 87.6884 106.813 83.9018 116.505 83.2545C116.928 83.2271 117.351 83.2072 117.777 83.1898C118.195 83.1748 118.616 83.1649 119.034 83.1599C119.186 83.1574 119.338 83.1549 119.488 83.1549C119.766 83.1549 120.045 83.1599 120.324 83.1649C130.793 83.3591 140.871 87.2179 148.782 94.0842C156.378 100.672 161.524 109.609 163.406 119.401C163.419 119.458 163.419 119.518 163.414 119.575C163.426 119.625 163.434 119.675 163.434 119.727ZM83.4782 103.632C80.3538 108.225 78.0908 113.453 76.9281 119.095H162.049C160.289 110.565 156.007 102.982 150.065 97.0991C149.716 96.7555 149.363 96.4169 149.004 96.0833C146.669 93.9224 144.105 92.0153 141.356 90.4021C140.973 90.1755 140.587 89.9564 140.196 89.7423C133.987 86.3466 126.911 84.4196 119.49 84.4196C113.682 84.4196 108.088 85.5997 102.957 87.7382C101.769 88.2337 100.609 88.7789 99.4738 89.3739C93.5685 92.4684 88.42 96.8825 84.4616 102.243C84.1255 102.698 83.7969 103.161 83.4782 103.632Z" fill="#1F5014"/>
</g>
<path d="M141.152 106.662C141.471 106.482 141.804 106.343 142.128 106.211C142.723 105.964 143.285 105.733 143.584 105.307C143.91 104.842 143.91 104.167 143.908 103.453C143.908 103.236 143.908 103.022 143.915 102.81C144.027 99.8152 146.186 97.0493 149.004 96.0833C149.363 96.4169 149.716 96.7555 150.065 97.0991C147.411 97.6543 145.282 100.144 145.18 102.86C145.173 103.052 145.173 103.251 145.173 103.45C145.175 104.289 145.178 105.24 144.62 106.034C144.11 106.761 143.313 107.09 142.611 107.381C142.31 107.506 142.023 107.623 141.767 107.764C139.875 108.823 139.481 111.444 140.076 113.373C140.754 115.574 142.459 117.399 143.965 119.01C143.99 119.037 144.01 119.065 144.03 119.092H142.317C140.925 117.573 139.516 115.856 138.866 113.747C138.127 111.342 138.677 108.043 141.152 106.662ZM99.2945 100.034C100.014 100.248 100.756 100.318 101.448 100.318C101.956 100.318 102.439 100.281 102.865 100.238C107.104 99.8127 111.155 98.2443 114.576 95.7024C114.76 95.5655 114.944 95.4236 115.128 95.2842C115.8 94.7688 116.433 94.2834 117.142 93.9423C118.086 93.4917 119.037 93.4095 119.749 93.7207C120.182 93.9124 120.566 94.2535 120.971 94.6145C121.27 94.8834 121.581 95.1597 121.937 95.3987C123.884 96.7032 126.64 96.5091 129.901 94.8336C130.208 94.6767 130.514 94.5149 130.823 94.3506C132.742 93.3348 134.726 92.2793 136.758 92.5008C136.935 92.5207 137.111 92.5481 137.288 92.578C137.751 92.6527 138.229 92.7274 138.74 92.6726C139.969 92.5382 141.035 91.5822 141.356 90.4021C140.973 90.1756 140.587 89.9565 140.196 89.7424C140.191 89.7623 140.186 89.7822 140.183 89.8021C140.114 90.6038 139.404 91.3282 138.605 91.4154C138.262 91.4527 137.886 91.393 137.49 91.3282C137.291 91.2959 137.091 91.266 136.892 91.2436C134.48 90.9797 132.319 92.1274 130.23 93.2328C129.926 93.3946 129.625 93.5539 129.324 93.7083C127.352 94.7215 124.591 95.6551 122.639 94.3481C122.358 94.1589 122.094 93.9224 121.813 93.6709C121.352 93.2601 120.877 92.8344 120.257 92.5631C119.206 92.1025 117.872 92.1921 116.597 92.8021C115.768 93.1979 115.051 93.7481 114.359 94.2784C114.18 94.4153 114.001 94.5522 113.819 94.6867C110.582 97.0916 106.751 98.5754 102.738 98.9787C101.846 99.0683 100.694 99.1306 99.6555 98.8219C98.6647 98.5256 97.8755 97.8908 97.5469 97.119C97.1411 96.168 97.4025 95.0427 97.6937 94.2634C98.6547 91.6942 100.858 89.7075 102.802 87.9524C102.87 87.8901 102.922 87.8179 102.957 87.7383C101.769 88.2337 100.609 88.7789 99.4738 89.3739C98.2539 90.6536 97.1535 92.1 96.5087 93.8203C95.9734 95.2468 95.9311 96.5588 96.3817 97.6169C96.8647 98.7447 97.9253 99.626 99.2945 100.034ZM88.8159 104.045C90.9893 105.238 91.5644 108.051 91.3976 110.097L91.3752 110.329C91.3204 110.956 91.2557 111.666 91.542 112.345C92.0673 113.588 93.5162 114.208 95.6174 114.098H95.6548C96.8398 114.036 98.1842 113.964 98.8439 114.72C99.2721 115.213 99.3792 116.027 99.1626 117.138C99.0331 117.81 98.829 118.462 98.5701 119.092H99.9344C100.134 118.537 100.293 117.964 100.405 117.382C100.701 115.866 100.497 114.693 99.7974 113.889C98.7319 112.669 96.9892 112.761 95.59 112.833L95.5502 112.836C94.6639 112.883 93.1154 112.816 92.7071 111.852C92.5428 111.464 92.5876 110.969 92.6374 110.443L92.6573 110.199C92.8565 107.777 92.1295 104.418 89.4258 102.935C87.8723 102.081 86.04 102.088 84.4616 102.243C84.1255 102.698 83.7969 103.161 83.4782 103.629C85.5247 103.37 87.3396 103.231 88.8159 104.045Z" fill="#7D9B76"/>
<path d="M36.0641 125.415H50.4937V129.289H45.405V145.352H41.1528V129.289H36.0641V125.415Z" fill="#272727"/>
<path d="M66.996 131.4V145.352H63.65L63.2517 143.858C62.7065 144.59 62.0567 145.078 61.2999 145.322C60.543 145.566 59.7489 145.69 58.9198 145.69C57.929 145.69 57.0178 145.496 56.1813 145.113C55.3448 144.73 54.6178 144.204 54.0004 143.539C53.383 142.877 52.8975 142.101 52.5465 141.209C52.2005 140.313 52.0287 139.362 52.0287 138.351C52.0287 137.335 52.2005 136.384 52.5465 135.493C52.8975 134.604 53.383 133.828 54.0004 133.163C54.6178 132.501 55.3448 131.975 56.1813 131.589C57.0178 131.206 57.929 131.012 58.9198 131.012C59.8211 131.012 60.6476 131.151 61.3995 131.43C62.1488 131.709 62.7662 132.162 63.2517 132.784L63.65 131.4H66.996ZM63.1123 138.401C63.1123 137.672 63.0127 137.062 62.8135 136.569C62.6194 136.071 62.358 135.667 62.0268 135.354C61.7007 135.043 61.3148 134.816 60.8717 134.677C60.4335 134.537 59.9605 134.467 59.4576 134.467C58.9522 134.467 58.4767 134.572 58.0335 134.776C57.5954 134.983 57.207 135.262 56.8684 135.613C56.5298 135.959 56.2659 136.369 56.0817 136.847C55.895 137.325 55.8029 137.828 55.8029 138.351C55.8029 138.896 55.895 139.404 56.0817 139.875C56.2659 140.34 56.5298 140.746 56.8684 141.09C57.207 141.436 57.5954 141.715 58.0335 141.926C58.4767 142.133 58.9522 142.235 59.4576 142.235C60.4659 142.235 61.3223 141.921 62.0268 141.289C62.7289 140.659 63.0924 139.696 63.1123 138.401Z" fill="#272727"/>
<path d="M85.0153 131.4C85.5182 131.4 86.061 131.487 86.6385 131.659C87.2211 131.826 87.7638 132.125 88.2618 132.555C88.7597 132.989 89.168 133.579 89.4866 134.328C89.8053 135.08 89.9646 136.036 89.9646 137.196V145.352H86.0809V137.903C86.0809 137.34 86.0211 136.862 85.9016 136.469C85.7821 136.071 85.6153 135.752 85.4037 135.513C85.1971 135.269 84.9581 135.095 84.6867 134.995C84.4203 134.891 84.144 134.836 83.8602 134.836C83.6013 134.836 83.3374 134.883 83.0735 134.975C82.8145 135.07 82.578 135.229 82.3664 135.453C82.1598 135.68 81.998 135.989 81.8785 136.379C81.759 136.773 81.6992 137.271 81.6992 137.873V145.352H77.8155V137.903C77.8155 136.755 77.6163 135.959 77.218 135.513C76.8246 135.062 76.2545 134.836 75.5051 134.836C74.9674 134.836 74.4819 135.09 74.0512 135.593C73.618 136.098 73.4039 136.885 73.4039 137.953V145.352H69.5202V131.4H72.8363L73.4039 132.695C73.8346 132.284 74.335 131.965 74.9076 131.739C75.4777 131.515 76.0927 131.4 76.7499 131.4C77.0885 131.4 77.442 131.435 77.8155 131.5C78.1864 131.567 78.5524 131.687 78.9109 131.858C79.2694 132.025 79.6105 132.244 79.9366 132.516C80.2677 132.789 80.564 133.131 80.8229 133.541C81.0469 133.183 81.3208 132.869 81.6395 132.595C81.9581 132.324 82.3017 132.102 82.6751 131.928C83.0535 131.749 83.4419 131.617 83.8403 131.53C84.2436 131.445 84.6369 131.4 85.0153 131.4Z" fill="#272727"/>
<path d="M107.03 131.4V145.352H103.684L103.286 143.858C102.74 144.59 102.091 145.078 101.334 145.322C100.577 145.566 99.7829 145.69 98.9538 145.69C97.963 145.69 97.0518 145.496 96.2153 145.113C95.3788 144.73 94.6518 144.204 94.0344 143.539C93.417 142.877 92.9315 142.101 92.5805 141.209C92.2345 140.313 92.0627 139.362 92.0627 138.351C92.0627 137.335 92.2345 136.384 92.5805 135.493C92.9315 134.604 93.417 133.828 94.0344 133.163C94.6518 132.501 95.3788 131.975 96.2153 131.589C97.0518 131.206 97.963 131.012 98.9538 131.012C99.8551 131.012 100.682 131.151 101.433 131.43C102.183 131.709 102.8 132.162 103.286 132.784L103.684 131.4H107.03ZM103.146 138.401C103.146 137.672 103.047 137.062 102.848 136.569C102.653 136.071 102.392 135.667 102.061 135.354C101.735 135.043 101.349 134.816 100.906 134.677C100.468 134.537 99.9945 134.467 99.4916 134.467C98.9862 134.467 98.5107 134.572 98.0676 134.776C97.6294 134.983 97.241 135.262 96.9024 135.613C96.5638 135.959 96.2999 136.369 96.1157 136.847C95.929 137.325 95.8369 137.828 95.8369 138.351C95.8369 138.896 95.929 139.404 96.1157 139.875C96.2999 140.34 96.5638 140.746 96.9024 141.09C97.241 141.436 97.6294 141.715 98.0676 141.926C98.5107 142.133 98.9862 142.235 99.4916 142.235C100.5 142.235 101.356 141.921 102.061 141.289C102.763 140.659 103.126 139.696 103.146 138.401Z" fill="#272727"/>
<path d="M120.469 131.4H123.785V140.632C123.785 141.702 123.767 142.653 123.735 143.49C123.707 144.321 123.638 145.068 123.526 145.73C123.411 146.393 123.229 146.988 122.978 147.513C122.724 148.043 122.373 148.531 121.922 148.977C121.098 149.786 120.175 150.341 119.154 150.64C118.131 150.939 117.058 151.088 115.937 151.088C114.981 151.088 114.08 150.973 113.239 150.749C112.395 150.523 111.635 150.214 110.958 149.823V146.198C111.13 146.457 111.369 146.689 111.675 146.895C111.986 147.1 112.343 147.279 112.741 147.433C113.144 147.585 113.577 147.702 114.035 147.782C114.498 147.866 114.964 147.911 115.43 147.911C116.047 147.911 116.627 147.832 117.172 147.672C117.715 147.513 118.191 147.254 118.596 146.895C119 146.542 119.318 146.099 119.552 145.561C119.784 145.031 119.901 144.381 119.901 143.609V143.33C119.356 143.816 118.728 144.204 118.019 144.495C117.307 144.789 116.53 144.934 115.689 144.934C114.745 144.934 113.876 144.752 113.079 144.386C112.283 144.022 111.591 143.525 111.008 142.892C110.431 142.262 109.975 141.523 109.644 140.671C109.318 139.815 109.156 138.909 109.156 137.953C109.156 136.997 109.318 136.098 109.644 135.254C109.975 134.413 110.431 133.678 111.008 133.053C111.591 132.423 112.283 131.926 113.079 131.56C113.876 131.196 114.745 131.012 115.689 131.012C116.565 131.012 117.357 131.129 118.069 131.36C118.786 131.594 119.395 131.965 119.901 132.476L120.469 131.4ZM116.475 141.468C117.073 141.468 117.586 141.364 118.019 141.149C118.449 140.93 118.805 140.657 119.084 140.323C119.368 139.984 119.575 139.611 119.702 139.198C119.834 138.779 119.901 138.376 119.901 137.983C119.901 137.552 119.831 137.126 119.692 136.708C119.552 136.285 119.338 135.909 119.054 135.583C118.776 135.252 118.42 134.983 117.989 134.776C117.556 134.572 117.053 134.467 116.475 134.467C115.982 134.467 115.532 134.565 115.121 134.756C114.708 134.943 114.347 135.194 114.035 135.513C113.729 135.832 113.488 136.205 113.308 136.628C113.129 137.047 113.04 137.5 113.04 137.983C113.04 138.476 113.129 138.934 113.308 139.357C113.488 139.775 113.729 140.144 114.035 140.462C114.347 140.781 114.708 141.03 115.121 141.209C115.532 141.384 115.982 141.468 116.475 141.468Z" fill="#272727"/>
<path d="M133.057 131.012C134.053 131.012 134.989 131.206 135.865 131.589C136.747 131.975 137.518 132.501 138.176 133.163C138.833 133.828 139.353 134.604 139.739 135.493C140.122 136.384 140.317 137.335 140.317 138.351C140.317 139.362 140.122 140.313 139.739 141.209C139.353 142.101 138.833 142.877 138.176 143.539C137.518 144.204 136.747 144.73 135.865 145.113C134.989 145.496 134.053 145.69 133.057 145.69C132.046 145.69 131.1 145.496 130.219 145.113C129.335 144.73 128.566 144.204 127.909 143.539C127.256 142.877 126.738 142.101 126.355 141.209C125.969 140.313 125.778 139.362 125.778 138.351C125.778 137.335 125.969 136.384 126.355 135.493C126.738 134.604 127.256 133.828 127.909 133.163C128.566 132.501 129.335 131.975 130.219 131.589C131.1 131.206 132.046 131.012 133.057 131.012ZM133.057 142.285C133.528 142.285 133.963 142.193 134.362 142.006C134.765 141.822 135.121 141.565 135.427 141.239C135.738 140.908 135.985 140.512 136.164 140.054C136.343 139.591 136.433 139.078 136.433 138.52C136.433 137.958 136.343 137.433 136.164 136.947C135.985 136.457 135.738 136.028 135.427 135.662C135.121 135.299 134.765 135.01 134.362 134.796C133.963 134.577 133.528 134.467 133.057 134.467C132.592 134.467 132.151 134.577 131.733 134.796C131.319 135.01 130.958 135.299 130.647 135.662C130.341 136.028 130.099 136.457 129.92 136.947C129.741 137.433 129.651 137.958 129.651 138.52C129.651 139.078 129.741 139.591 129.92 140.054C130.099 140.512 130.341 140.908 130.647 141.239C130.958 141.565 131.319 141.822 131.733 142.006C132.151 142.193 132.592 142.285 133.057 142.285Z" fill="#272727"/>
<path d="M151.196 138.042C152.224 138.774 152.74 139.813 152.74 141.159C152.74 141.777 152.593 142.359 152.301 142.902C152.008 143.447 151.609 143.925 151.106 144.336C150.601 144.749 150.011 145.073 149.334 145.312C148.662 145.544 147.942 145.661 147.173 145.661C146.588 145.661 146.02 145.583 145.47 145.432C144.917 145.287 144.407 145.083 143.936 144.824C143.463 144.56 143.055 144.244 142.711 143.878C142.365 143.515 142.109 143.106 141.945 142.653C142.368 142.449 142.843 142.22 143.369 141.966C143.899 141.715 144.36 141.486 144.753 141.279C144.917 141.558 145.181 141.814 145.54 142.046C145.898 142.28 146.386 142.394 147.004 142.394C147.641 142.394 148.109 142.245 148.408 141.946C148.706 141.647 148.856 141.369 148.856 141.11C148.856 140.918 148.751 140.741 148.547 140.582C148.34 140.423 148.109 140.298 147.85 140.203C147.472 140.059 147.158 139.982 146.914 139.974C146.675 139.962 146.396 139.91 146.077 139.815C145.062 139.571 144.285 139.247 143.747 138.849C143.214 138.446 142.826 138.038 142.582 137.624C142.343 137.206 142.206 136.813 142.174 136.439C142.146 136.061 142.134 135.76 142.134 135.533C142.134 134.935 142.263 134.365 142.522 133.82C142.786 133.277 143.15 132.804 143.608 132.406C144.071 132.003 144.606 131.677 145.211 131.43C145.821 131.186 146.476 131.062 147.173 131.062C147.75 131.062 148.301 131.149 148.826 131.321C149.349 131.487 149.827 131.724 150.26 132.028C150.691 132.326 151.062 132.682 151.375 133.093C151.686 133.506 151.915 133.965 152.062 134.467L149.055 135.483C148.94 135.145 148.711 134.873 148.368 134.667C148.022 134.462 147.651 134.358 147.252 134.358C146.859 134.358 146.54 134.492 146.296 134.756C146.057 135.015 145.938 135.274 145.938 135.533C145.938 135.852 146.052 136.101 146.287 136.28C146.518 136.459 146.777 136.586 147.063 136.658C147.267 136.698 147.467 136.735 147.661 136.768C147.86 136.795 148.052 136.825 148.238 136.857C148.896 137.012 149.463 137.181 149.941 137.365C150.419 137.552 150.837 137.779 151.196 138.042Z" fill="#272727"/>
<path d="M161.679 131.012C162.727 131.012 163.683 131.226 164.547 131.649C165.408 132.067 166.15 132.62 166.767 133.302C167.385 133.987 167.863 134.774 168.201 135.662C168.54 136.554 168.709 137.465 168.709 138.401C168.709 138.966 168.632 139.566 168.48 140.203H158.532C158.903 140.841 159.433 141.384 160.125 141.827C160.822 142.265 161.574 142.484 162.386 142.484C163.187 142.484 163.894 142.419 164.507 142.285C165.117 142.153 165.692 141.983 166.23 141.777L167.524 144.167C166.832 144.66 166.043 145.038 165.154 145.302C164.263 145.561 163.312 145.69 162.296 145.69C161.186 145.69 160.155 145.496 159.199 145.113C158.243 144.73 157.409 144.207 156.699 143.549C155.987 142.892 155.427 142.115 155.016 141.219C154.603 140.318 154.399 139.362 154.399 138.351C154.399 137.355 154.583 136.414 154.957 135.523C155.335 134.634 155.855 133.857 156.52 133.193C157.182 132.523 157.954 131.993 158.831 131.599C159.712 131.209 160.663 131.012 161.679 131.012ZM164.855 137.196C164.629 136.394 164.223 135.74 163.64 135.234C163.063 134.724 162.408 134.467 161.679 134.467C160.927 134.467 160.247 134.724 159.637 135.234C159.025 135.74 158.611 136.394 158.392 137.196H164.855Z" fill="#272727"/>
<path d="M178.406 131.012C179.454 131.012 180.41 131.226 181.274 131.649C182.136 132.067 182.878 132.62 183.495 133.302C184.112 133.987 184.59 134.774 184.929 135.662C185.268 136.554 185.437 137.465 185.437 138.401C185.437 138.966 185.36 139.566 185.208 140.203H175.259C175.63 140.841 176.161 141.384 176.853 141.827C177.55 142.265 178.302 142.484 179.113 142.484C179.915 142.484 180.622 142.419 181.234 142.285C181.844 142.153 182.42 141.983 182.957 141.777L184.252 144.167C183.56 144.66 182.771 145.038 181.882 145.302C180.99 145.561 180.039 145.69 179.024 145.69C177.913 145.69 176.883 145.496 175.927 145.113C174.971 144.73 174.137 144.207 173.427 143.549C172.715 142.892 172.155 142.115 171.744 141.219C171.331 140.318 171.127 139.362 171.127 138.351C171.127 137.355 171.311 136.414 171.684 135.523C172.063 134.634 172.583 133.857 173.248 133.193C173.91 132.523 174.682 131.993 175.558 131.599C176.44 131.209 177.391 131.012 178.406 131.012ZM181.583 137.196C181.356 136.394 180.951 135.74 180.368 135.234C179.791 134.724 179.136 134.467 178.406 134.467C177.654 134.467 176.975 134.724 176.365 135.234C175.752 135.74 175.339 136.394 175.12 137.196H181.583Z" fill="#272727"/>
<path d="M202.304 124.818V145.352H198.988L198.42 144.147C197.987 144.593 197.395 144.961 196.638 145.252C195.881 145.544 195.087 145.69 194.258 145.69C193.267 145.69 192.351 145.496 191.509 145.113C190.665 144.729 189.938 144.204 189.328 143.539C188.716 142.877 188.238 142.1 187.894 141.209C187.548 140.313 187.376 139.362 187.376 138.351C187.376 137.335 187.548 136.384 187.894 135.493C188.238 134.604 188.716 133.828 189.328 133.163C189.938 132.501 190.665 131.975 191.509 131.589C192.351 131.206 193.267 131.012 194.258 131.012C195.139 131.012 195.923 131.116 196.608 131.321C197.29 131.527 197.895 131.873 198.42 132.356V124.818H202.304ZM198.42 138.401C198.42 137.672 198.326 137.062 198.141 136.569C197.955 136.071 197.693 135.667 197.355 135.354C197.016 135.043 196.623 134.816 196.18 134.677C195.741 134.537 195.268 134.467 194.766 134.467C194.26 134.467 193.785 134.572 193.341 134.776C192.903 134.983 192.517 135.262 192.186 135.613C191.86 135.959 191.604 136.369 191.42 136.847C191.233 137.325 191.141 137.828 191.141 138.351C191.141 138.896 191.233 139.404 191.42 139.875C191.604 140.34 191.86 140.746 192.186 141.09C192.517 141.436 192.903 141.715 193.341 141.926C193.785 142.133 194.26 142.235 194.766 142.235C195.781 142.235 196.64 141.921 197.345 141.289C198.047 140.659 198.405 139.696 198.42 138.401Z" fill="#272727"/>
<path d="M60.3709 155.367H62.5319C63.2414 155.367 63.7891 155.536 64.175 155.874C64.5659 156.208 64.7626 156.679 64.7626 157.289C64.7626 157.926 64.5659 158.421 64.175 158.772C63.7891 159.118 63.2414 159.29 62.5319 159.29H61.0282V161.103H60.3709V155.367ZM61.0282 155.994V158.663H62.502C63.0248 158.663 63.4282 158.551 63.707 158.324C63.9908 158.093 64.1352 157.754 64.1352 157.308C64.1352 156.878 63.9908 156.552 63.707 156.333C63.4282 156.108 63.0248 155.994 62.502 155.994H61.0282Z" fill="#272727"/>
<path d="M72.9278 155.994H69.6914V157.886H72.5892V158.513H69.6914V160.475H73.0374V161.103H69.0341V155.367H72.9278V155.994Z" fill="#272727"/>
<path d="M82.3198 161.103H81.6526L78.207 156.492V161.103H77.5498V155.367H78.2369L81.6725 159.977V155.367H82.3198V161.103Z" fill="#272727"/>
<path d="M88.9482 155.337C89.6303 155.337 90.2378 155.516 90.7705 155.874L90.4917 156.492C90.0137 156.168 89.4859 156.004 88.9083 156.004C88.5349 156.004 88.2411 156.071 88.022 156.203C87.803 156.337 87.6934 156.527 87.6934 156.771C87.6934 156.997 87.7681 157.186 87.9225 157.338C88.0818 157.493 88.281 157.607 88.52 157.687C88.7639 157.762 89.0278 157.844 89.3067 157.936C89.5855 158.03 89.8394 158.13 90.0735 158.235C90.3125 158.342 90.5116 158.508 90.671 158.732C90.8303 158.959 90.91 159.23 90.91 159.549C90.91 160.027 90.7158 160.41 90.3324 160.694C89.954 160.981 89.456 161.122 88.8386 161.122C88.4254 161.122 88.0245 161.048 87.6337 160.893C87.2478 160.734 86.9167 160.52 86.6378 160.246L86.9366 159.659C87.1955 159.918 87.4943 160.122 87.8328 160.266C88.1764 160.405 88.515 160.475 88.8486 160.475C89.2594 160.475 89.5855 160.396 89.8245 160.236C90.0685 160.077 90.193 159.863 90.193 159.589C90.193 159.385 90.1332 159.21 90.0137 159.071C89.8942 158.927 89.7399 158.817 89.5556 158.742C89.3689 158.663 89.1598 158.591 88.9283 158.523C88.6942 158.451 88.4627 158.374 88.2312 158.294C88.0046 158.215 87.7955 158.12 87.6038 158.006C87.4171 157.893 87.2652 157.737 87.1457 157.537C87.0262 157.338 86.9665 157.099 86.9665 156.82C86.9665 156.377 87.1482 156.019 87.5142 155.745C87.8777 155.474 88.3557 155.337 88.9482 155.337Z" fill="#272727"/>
<path d="M99.068 159.649H95.9312L95.2938 161.103H94.5967L97.1759 155.367H97.8531L100.422 161.103H99.7054L99.068 159.649ZM98.7892 159.021L97.4946 156.113L96.21 159.021H98.7892Z" fill="#272727"/>
<path d="M109.268 161.103H108.601L105.155 156.492V161.103H104.498V155.367H105.185L108.621 159.977V155.367H109.268V161.103Z" fill="#272727"/>
<path d="M114.193 155.367H116.514C117.35 155.367 118.05 155.643 118.615 156.193C119.178 156.738 119.461 157.418 119.461 158.235C119.461 159.051 119.175 159.736 118.605 160.286C118.04 160.831 117.335 161.103 116.494 161.103H114.193V155.367ZM114.851 155.994V160.475H116.524C117.166 160.475 117.709 160.264 118.147 159.838C118.585 159.415 118.804 158.882 118.804 158.245C118.804 157.602 118.58 157.067 118.137 156.641C117.691 156.211 117.146 155.994 116.504 155.994H114.851Z" fill="#272727"/>
<path d="M126.309 155.347C127.146 155.347 127.853 155.626 128.431 156.183C129.013 156.741 129.307 157.425 129.307 158.235C129.307 159.046 129.013 159.733 128.431 160.296C127.853 160.854 127.146 161.132 126.309 161.132C125.465 161.132 124.751 160.854 124.168 160.296C123.591 159.733 123.302 159.046 123.302 158.235C123.302 157.425 123.591 156.741 124.168 156.183C124.751 155.626 125.465 155.347 126.309 155.347ZM126.309 155.974C125.665 155.974 125.114 156.193 124.656 156.631C124.198 157.069 123.969 157.605 123.969 158.235C123.969 158.867 124.198 159.405 124.656 159.848C125.114 160.286 125.665 160.505 126.309 160.505C126.947 160.505 127.494 160.286 127.953 159.848C128.411 159.405 128.64 158.867 128.64 158.235C128.64 157.605 128.411 157.069 127.953 156.631C127.494 156.193 126.947 155.974 126.309 155.974Z" fill="#272727"/>
<path d="M141.3 161.103H140.623L138.293 155.367H139L140.972 160.336L142.953 155.367H143.641L141.3 161.103Z" fill="#272727"/>
<path d="M151.634 155.994H148.397V157.886H151.295V158.513H148.397V160.475H151.743V161.103H147.74V155.367H151.634V155.994Z" fill="#272727"/>
<path d="M160.01 161.103L158.825 159.27C158.658 159.285 158.529 159.29 158.436 159.29H156.913V161.103H156.256V155.367H158.436C159.153 155.367 159.706 155.536 160.1 155.874C160.498 156.208 160.697 156.679 160.697 157.289C160.697 157.762 160.587 158.155 160.368 158.474C160.149 158.792 159.831 159.019 159.412 159.151L160.757 161.103H160.01ZM156.913 158.663H158.436C158.959 158.663 159.363 158.551 159.641 158.324C159.925 158.093 160.07 157.754 160.07 157.308C160.07 156.878 159.925 156.552 159.641 156.333C159.363 156.108 158.959 155.994 158.436 155.994H156.913V158.663Z" fill="#272727"/>
<path d="M165.361 155.367H167.681C168.518 155.367 169.218 155.643 169.783 156.193C170.345 156.738 170.629 157.418 170.629 158.235C170.629 159.051 170.343 159.736 169.773 160.286C169.208 160.831 168.503 161.103 167.662 161.103H165.361V155.367ZM166.018 155.994V160.475H167.691C168.334 160.475 168.876 160.264 169.315 159.838C169.753 159.415 169.972 158.882 169.972 158.245C169.972 157.602 169.748 157.067 169.305 156.641C168.859 156.211 168.314 155.994 167.672 155.994H166.018Z" fill="#272727"/>
<path d="M178.901 155.994H175.665V157.886H178.563V158.513H175.665V160.475H179.011V161.103H175.008V155.367H178.901V155.994Z" fill="#272727"/>
</svg>
